<svg width="1097" height="688" xmlns="http://www.w3.org/2000/svg" xmlns:xlink="http://www.w3.org/1999/xlink" overflow="hidden"><defs><clipPath id="clip0"><path d="M140 14 1237 14 1237 702 140 702Z" fill-rule="evenodd" clip-rule="evenodd"/></clipPath><clipPath id="clip1"><path d="M203 125 244 125 244 166 203 166Z" fill-rule="evenodd" clip-rule="evenodd"/></clipPath><clipPath id="clip2"><path d="M203 125 244 125 244 166 203 166Z" fill-rule="evenodd" clip-rule="evenodd"/></clipPath><clipPath id="clip3"><path d="M203 125 244 125 244 166 203 166Z" fill-rule="evenodd" clip-rule="evenodd"/></clipPath><clipPath id="clip4"><path d="M141 19 237 19 237 115 141 115Z" fill-rule="evenodd" clip-rule="evenodd"/></clipPath><clipPath id="clip5"><path d="M141 19 237 19 237 115 141 115Z" fill-rule="evenodd" clip-rule="evenodd"/></clipPath><clipPath id="clip6"><path d="M141 19 237 19 237 115 141 115Z" fill-rule="evenodd" clip-rule="evenodd"/></clipPath><clipPath id="clip7"><path d="M910 30 968 30 968 88 910 88Z" fill-rule="evenodd" clip-rule="evenodd"/></clipPath><clipPath id="clip8"><path d="M910 30 968 30 968 88 910 88Z" fill-rule="evenodd" clip-rule="evenodd"/></clipPath><clipPath id="clip9"><path d="M910 30 968 30 968 88 910 88Z" fill-rule="evenodd" clip-rule="evenodd"/></clipPath></defs><g clip-path="url(#clip0)" transform="translate(-140 -14)"><path d="M191.5 31.0004C191.5 24.6489 196.649 19.5001 203 19.5001L489 19.5001C495.351 19.5001 500.5 24.6489 500.5 31.0004L500.5 76.9997C500.5 83.3512 495.351 88.5001 489 88.5001L203 88.5001C196.649 88.5001 191.5 83.3512 191.5 76.9997Z" stroke="#2F528F" stroke-miterlimit="8" fill="#4472C4" fill-rule="evenodd"/><text fill="#FFFFFF" font-family="Calibri,Calibri_MSFontService,sans-serif" font-weight="400" font-size="37" transform="translate(302.023 66)">Client</text><path d="M561.5 31.0003C561.5 24.6489 566.649 19.5001 573 19.5001L860 19.5001C866.351 19.5001 871.5 24.6489 871.5 31.0003L871.5 76.9998C871.5 83.3512 866.351 88.5001 860 88.5001L573 88.5001C566.649 88.5001 561.5 83.3512 561.5 76.9998Z" stroke="#2F528F" stroke-miterlimit="8" fill="#4472C4" fill-rule="evenodd"/><text fill="#FFFFFF" font-family="Calibri,Calibri_MSFontService,sans-serif" font-weight="400" font-size="37" transform="translate(663.49 66)">Shared</text><path d="M926.5 27.0003C926.5 20.6489 931.649 15.5001 938 15.5001L1225 15.5001C1231.35 15.5001 1236.5 20.6489 1236.5 27.0003L1236.5 72.9998C1236.5 79.3512 1231.35 84.5001 1225 84.5001L938 84.5001C931.649 84.5001 926.5 79.3512 926.5 72.9998Z" stroke="#000000" stroke-miterlimit="8" fill-rule="evenodd"/><text fill="#FFFFFF" font-family="Calibri,Calibri_MSFontService,sans-serif" font-weight="400" font-size="37" transform="translate(965.72 63)">Server (engine)</text><path d="M528 19 528 698.68" stroke="#4472C4" stroke-width="4" stroke-miterlimit="8" stroke-dasharray="4 4" fill="none" fill-rule="evenodd"/><path d="M902 19 902 698.68" stroke="#4472C4" stroke-width="4" stroke-miterlimit="8" stroke-dasharray="4 4" fill="none" fill-rule="evenodd"/><text font-family="Consolas,Consolas_MSFontService,sans-serif" font-weight="400" font-size="19" transform="translate(199.68 122)">HolodeckEnvironment<tspan x="196.333" y="0">.__</tspan>init__</text><g clip-path="url(#clip1)"><g clip-path="url(#clip2)"><g clip-path="url(#clip3)"><path d="M241.865 144.603 235.885 138.624C235.373 138.282 234.69 138.368 234.262 138.795 233.835 139.222 233.75 139.905 234.092 140.418L237.893 144.219 233.323 144.219C232.127 144.219 230.846 144.261 229.479 144.261 222.048 144.39 210.773 144.56 208.894 140.29 208.595 139.649 207.869 139.35 207.185 139.649 206.545 139.948 206.246 140.674 206.545 141.357 208.723 146.226 216.923 146.909 224.867 146.909 226.447 146.909 228.027 146.867 229.522 146.867 230.889 146.824 232.17 146.824 233.323 146.824L237.935 146.824 234.134 150.625C233.75 151.137 233.793 151.864 234.22 152.333 234.647 152.803 235.416 152.846 235.928 152.419L241.907 146.44C242.035 146.311 242.121 146.183 242.164 146.012 242.164 145.97 242.206 145.927 242.206 145.884 242.206 145.842 242.206 145.842 242.249 145.799 242.249 145.756 242.249 145.714 242.249 145.671 242.249 145.628 242.249 145.585 242.249 145.543 242.249 145.5 242.249 145.5 242.249 145.457 242.206 145.116 242.078 144.817 241.865 144.603Z"/></g></g></g><text font-family="Consolas,Consolas_MSFontService,sans-serif" font-weight="400" font-size="19" transform="translate(253.76 155)">__<tspan x="20.6667" y="0">linux_start_process</tspan></text><rect x="567" y="227" width="304" height="66" stroke="#2F528F" stroke-width="4" stroke-miterlimit="8" fill="none"/><text font-family="Calibri,Calibri_MSFontService,sans-serif" font-weight="400" font-size="16" transform="translate(576.64 251)">Semaphore:<tspan font-family="Consolas,Consolas_MSFontService,sans-serif" font-size="24" x="4.07996" y="27">/HOLODECK_LOADING_SEM</tspan></text><rect x="259.5" y="177.5" width="235" height="67" stroke="#000000" stroke-linejoin="round" stroke-miterlimit="10" stroke-dasharray="4 3" fill="none"/><text font-family="Calibri,Calibri_MSFontService,sans-serif" font-weight="400" font-size="24" transform="translate(268.16 203)">Create Loading <tspan x="0" y="29">Semaphore</tspan></text><rect x="257.5" y="326.5" width="236" height="39" stroke="#000000" stroke-linejoin="round" stroke-miterlimit="10" stroke-dasharray="4 3" fill="none"/><text font-family="Calibri,Calibri_MSFontService,sans-serif" font-weight="400" font-size="24" transform="translate(267.04 353)">Start Engine Process</text><rect x="926.5" y="324.5" width="236" height="97" stroke="#000000" stroke-linejoin="round" stroke-miterlimit="10" stroke-dasharray="4 3" fill="none"/><text font-family="Calibri,Calibri_MSFontService,sans-serif" font-weight="400" font-size="24" transform="translate(935.68 351)">Initialize, begin to <tspan x="0" y="29">load level, instantiate </tspan><tspan x="0" y="58">objects, </tspan>etc<tspan x="111.747" y="58">…</tspan></text><g clip-path="url(#clip4)"><g clip-path="url(#clip5)"><g clip-path="url(#clip6)"><path d="M200.3 56.3C196.1 56.3 192.8 52.9 192.8 48.8 192.8 44.7 196.2 41.3 200.3 41.3 204.5 41.3 207.8 44.7 207.8 48.8 207.8 52.9 204.4 56.3 200.3 56.3ZM217.2 44.1C216.8 42.7 216.3 41.4 215.6 40.2L217.2 35.5 213.6 31.9 208.9 33.5C207.7 32.8 206.4 32.3 205 31.9L202.8 27.5 197.8 27.5 195.6 31.9C194.2 32.3 192.9 32.8 191.7 33.5L187 31.9 183.4 35.5 185 40.2C184.3 41.4 183.8 42.7 183.4 44.1L179 46.3 179 51.3 183.4 53.5C183.8 54.9 184.3 56.2 185 57.4L183.4 62.1 186.9 65.6 191.6 64C192.8 64.7 194.1 65.2 195.5 65.6L197.7 70 202.7 70 204.9 65.6C206.3 65.2 207.6 64.7 208.8 64L213.5 65.6 217.1 62.1 215.5 57.4C216.2 56.2 216.8 54.8 217.2 53.5L221.6 51.3 221.6 46.3 217.2 44.1Z" fill="#AFABAB"/><path d="M177.7 92.7C173.5 92.7 170.2 89.3 170.2 85.2 170.2 81 173.6 77.7 177.7 77.7 181.9 77.7 185.2 81.1 185.2 85.2 185.2 89.3 181.9 92.7 177.7 92.7L177.7 92.7ZM193 76.6 194.6 71.9 191 68.3 186.3 69.9C185.1 69.2 183.7 68.7 182.4 68.3L180.2 63.9 175.2 63.9 173 68.3C171.6 68.7 170.3 69.2 169.1 69.9L164.4 68.3 160.9 71.8 162.4 76.5C161.7 77.7 161.2 79.1 160.8 80.4L156.4 82.6 156.4 87.6 160.8 89.8C161.2 91.2 161.7 92.5 162.4 93.7L160.9 98.4 164.4 101.9 169.1 100.4C170.3 101.1 171.6 101.6 173 102L175.2 106.4 180.2 106.4 182.4 102C183.8 101.6 185.1 101.1 186.3 100.4L191 102 194.5 98.4 193 93.8C193.7 92.6 194.2 91.3 194.6 89.9L199 87.7 199 82.7 194.6 80.5C194.2 79.1 193.7 77.8 193 76.6Z" fill="#AFABAB"/></g></g></g><text fill="#FFFFFF" font-family="Arial,Arial_MSFontService,sans-serif" font-weight="700" font-size="15" transform="translate(201.553 86)">RUNNING</text><rect x="257.5" y="381.5" width="236" height="68" stroke="#000000" stroke-linejoin="round" stroke-miterlimit="10" stroke-dasharray="4 3" fill="none"/><text font-family="Calibri,Calibri_MSFontService,sans-serif" font-weight="400" font-size="24" transform="translate(267.04 407)">Wait to acquire <tspan x="0" y="29">loading semaphore</tspan></text><g clip-path="url(#clip7)"><g clip-path="url(#clip8)"><g clip-path="url(#clip9)"><path d="M922.083 61.4167 922.083 56.5833 955.917 56.5833 955.917 61.4167 922.083 61.4167ZM939 36.0417C926.313 36.0417 916.042 46.3125 916.042 59 916.042 71.6875 926.313 81.9583 939 81.9583 951.688 81.9583 961.958 71.6875 961.958 59 961.958 46.3125 951.688 36.0417 939 36.0417Z" fill="#C00000"/></g></g></g><text fill="#FFFFFF" font-family="Arial,Arial_MSFontService,sans-serif" font-weight="700" font-size="15" transform="translate(961.967 80)">BLOCKED </text><rect x="926.5" y="436.5" width="236" height="68" stroke="#000000" stroke-linejoin="round" stroke-miterlimit="10" stroke-dasharray="4 3" fill="none"/><text font-family="Calibri,Calibri_MSFontService,sans-serif" font-weight="400" font-size="24" transform="translate(935.68 463)">Signal client that <tspan x="0" y="29">engine has loaded</tspan></text><path d="M923.138 471.28 871.892 275.271 877.697 273.753 928.943 469.762ZM866.846 279.691 871 260 884.26 275.138Z" fill="#4472C4"/><rect x="254.5" y="470.5" width="236" height="68" stroke="#000000" stroke-linejoin="round" stroke-miterlimit="10" stroke-dasharray="4 3" fill="none"/><text font-family="Calibri,Calibri_MSFontService,sans-serif" font-weight="400" font-size="24" transform="translate(263.84 497)">Resume <tspan x="0" y="29">initialization…</tspan></text><path d="M2.86046-0.904306 75.6191 229.242 69.8982 231.051-2.86046 0.904306ZM80.4357 224.574 77.2802 244.449 63.273 229.999Z" fill="#4472C4" transform="matrix(-1 -8.74228e-08 -8.74228e-08 1 567.28 260)"/><rect x="926.5" y="535.5" width="236" height="38" stroke="#000000" stroke-linejoin="round" stroke-miterlimit="10" stroke-dasharray="4 3" fill="none"/><text font-family="Calibri,Calibri_MSFontService,sans-serif" font-weight="400" font-size="24" transform="translate(935.68 561)">Wait on semaphore…</text></g></svg>