<svg width="1081" height="688" xmlns="http://www.w3.org/2000/svg" xmlns:xlink="http://www.w3.org/1999/xlink" overflow="hidden"><defs><clipPath id="clip0"><path d="M156 14 1237 14 1237 702 156 702Z" fill-rule="evenodd" clip-rule="evenodd"/></clipPath><clipPath id="clip1"><path d="M203 125 244 125 244 166 203 166Z" fill-rule="evenodd" clip-rule="evenodd"/></clipPath><clipPath id="clip2"><path d="M203 125 244 125 244 166 203 166Z" fill-rule="evenodd" clip-rule="evenodd"/></clipPath><clipPath id="clip3"><path d="M203 125 244 125 244 166 203 166Z" fill-rule="evenodd" clip-rule="evenodd"/></clipPath><clipPath id="clip4"><path d="M156 18 252 18 252 114 156 114Z" fill-rule="evenodd" clip-rule="evenodd"/></clipPath><clipPath id="clip5"><path d="M156 18 252 18 252 114 156 114Z" fill-rule="evenodd" clip-rule="evenodd"/></clipPath><clipPath id="clip6"><path d="M156 18 252 18 252 114 156 114Z" fill-rule="evenodd" clip-rule="evenodd"/></clipPath></defs><g clip-path="url(#clip0)" transform="translate(-156 -14)"><path d="M191.5 31.0004C191.5 24.6489 196.649 19.5001 203 19.5001L489 19.5001C495.351 19.5001 500.5 24.6489 500.5 31.0004L500.5 76.9997C500.5 83.3512 495.351 88.5001 489 88.5001L203 88.5001C196.649 88.5001 191.5 83.3512 191.5 76.9997Z" stroke="#2F528F" stroke-miterlimit="8" fill="#4472C4" fill-rule="evenodd"/><text fill="#FFFFFF" font-family="Calibri,Calibri_MSFontService,sans-serif" font-weight="400" font-size="37" transform="translate(302.023 66)">Client</text><path d="M561.5 31.0003C561.5 24.6489 566.649 19.5001 573 19.5001L860 19.5001C866.351 19.5001 871.5 24.6489 871.5 31.0003L871.5 76.9998C871.5 83.3512 866.351 88.5001 860 88.5001L573 88.5001C566.649 88.5001 561.5 83.3512 561.5 76.9998Z" stroke="#2F528F" stroke-miterlimit="8" fill="#4472C4" fill-rule="evenodd"/><text fill="#FFFFFF" font-family="Calibri,Calibri_MSFontService,sans-serif" font-weight="400" font-size="37" transform="translate(663.49 66)">Shared</text><path d="M926.5 27.0003C926.5 20.6489 931.649 15.5001 938 15.5001L1225 15.5001C1231.35 15.5001 1236.5 20.6489 1236.5 27.0003L1236.5 72.9998C1236.5 79.3512 1231.35 84.5001 1225 84.5001L938 84.5001C931.649 84.5001 926.5 79.3512 926.5 72.9998Z" stroke="#000000" stroke-miterlimit="8" fill-rule="evenodd"/><text fill="#FFFFFF" font-family="Calibri,Calibri_MSFontService,sans-serif" font-weight="400" font-size="37" transform="translate(965.72 63)">Server (engine)<tspan fill="#000000" font-family="Consolas,Consolas_MSFontService,sans-serif" font-size="19" x="-766.04" y="59">HolodeckEnvironment</tspan><tspan fill="#000000" font-family="Consolas,Consolas_MSFontService,sans-serif" font-size="19" x="-569.706" y="59">.__</tspan><tspan fill="#000000" font-family="Consolas,Consolas_MSFontService,sans-serif" font-size="19" x="-538.706" y="59">init</tspan><tspan fill="#000000" font-family="Consolas,Consolas_MSFontService,sans-serif" font-size="19" x="-497.373" y="59">__</tspan></text><g clip-path="url(#clip1)"><g clip-path="url(#clip2)"><g clip-path="url(#clip3)"><path d="M241.865 144.603 235.885 138.624C235.373 138.282 234.69 138.368 234.262 138.795 233.835 139.222 233.75 139.905 234.092 140.418L237.893 144.219 233.323 144.219C232.127 144.219 230.846 144.261 229.479 144.261 222.048 144.39 210.773 144.56 208.894 140.29 208.595 139.649 207.869 139.35 207.185 139.649 206.545 139.948 206.246 140.674 206.545 141.357 208.723 146.226 216.923 146.909 224.867 146.909 226.447 146.909 228.027 146.867 229.522 146.867 230.889 146.824 232.17 146.824 233.323 146.824L237.935 146.824 234.134 150.625C233.75 151.137 233.793 151.864 234.22 152.333 234.647 152.803 235.416 152.846 235.928 152.419L241.907 146.44C242.035 146.311 242.121 146.183 242.164 146.012 242.164 145.97 242.206 145.927 242.206 145.884 242.206 145.842 242.206 145.842 242.249 145.799 242.249 145.756 242.249 145.714 242.249 145.671 242.249 145.628 242.249 145.585 242.249 145.543 242.249 145.5 242.249 145.5 242.249 145.457 242.206 145.116 242.078 144.817 241.865 144.603Z"/></g></g></g><text font-family="Consolas,Consolas_MSFontService,sans-serif" font-weight="400" font-size="19" transform="translate(253.76 155)">__<tspan x="20.6667" y="0">linux_start_process</tspan></text><rect x="567" y="227" width="304" height="66" stroke="#2F528F" stroke-width="4" stroke-miterlimit="8" fill="none"/><text font-family="Calibri,Calibri_MSFontService,sans-serif" font-weight="400" font-size="16" transform="translate(576.64 251)">Semaphore:<tspan font-family="Consolas,Consolas_MSFontService,sans-serif" font-size="24" x="4.07996" y="27">/HOLODECK_LOADING_SEM</tspan></text><rect x="259.5" y="177.5" width="235" height="67" stroke="#000000" stroke-linejoin="round" stroke-miterlimit="10" stroke-dasharray="4 3" fill="none"/><text font-family="Calibri,Calibri_MSFontService,sans-serif" font-weight="400" font-size="24" transform="translate(268.16 203)">Create Loading <tspan x="0" y="29">Semaphore</tspan></text><path d="M495.677 208.512 556.199 249.312 552.845 254.287 492.323 213.488ZM557.066 242.66 566.96 260.184 547.004 257.585Z" fill="#4472C4"/><text font-family="Calibri,Calibri_MSFontService,sans-serif" font-weight="400" font-size="24" transform="translate(991.946 126)">(Doesn’t exist yet)</text><g clip-path="url(#clip4)"><g clip-path="url(#clip5)"><g clip-path="url(#clip6)"><path d="M215.3 55.3C211.1 55.3 207.8 51.9 207.8 47.8 207.8 43.7 211.2 40.3 215.3 40.3 219.5 40.3 222.8 43.7 222.8 47.8 222.8 51.9 219.4 55.3 215.3 55.3ZM232.2 43.1C231.8 41.7 231.3 40.4 230.6 39.2L232.2 34.5 228.6 30.9 223.9 32.5C222.7 31.8 221.4 31.3 220 30.9L217.8 26.5 212.8 26.5 210.6 30.9C209.2 31.3 207.9 31.8 206.7 32.5L202 30.9 198.4 34.5 200 39.2C199.3 40.4 198.8 41.7 198.4 43.1L194 45.3 194 50.3 198.4 52.5C198.8 53.9 199.3 55.2 200 56.4L198.4 61.1 201.9 64.6 206.6 63C207.8 63.7 209.1 64.2 210.5 64.6L212.7 69 217.7 69 219.9 64.6C221.3 64.2 222.6 63.7 223.8 63L228.5 64.6 232.1 61.1 230.5 56.4C231.2 55.2 231.8 53.8 232.2 52.5L236.6 50.3 236.6 45.3 232.2 43.1Z" fill="#AFABAB"/><path d="M192.7 91.7C188.5 91.7 185.2 88.3 185.2 84.2 185.2 80 188.6 76.7 192.7 76.7 196.9 76.7 200.2 80.1 200.2 84.2 200.2 88.3 196.9 91.7 192.7 91.7L192.7 91.7ZM208 75.6 209.6 70.9 206 67.3 201.3 68.9C200.1 68.2 198.7 67.7 197.4 67.3L195.2 62.9 190.2 62.9 188 67.3C186.6 67.7 185.3 68.2 184.1 68.9L179.4 67.3 175.9 70.8 177.4 75.5C176.7 76.7 176.2 78.1 175.8 79.4L171.4 81.6 171.4 86.6 175.8 88.8C176.2 90.2 176.7 91.5 177.4 92.7L175.9 97.4 179.4 100.9 184.1 99.4C185.3 100.1 186.6 100.6 188 101L190.2 105.4 195.2 105.4 197.4 101C198.8 100.6 200.1 100.1 201.3 99.4L206 101 209.5 97.4 208 92.8C208.7 91.6 209.2 90.3 209.6 88.9L214 86.7 214 81.7 209.6 79.5C209.2 78.1 208.7 76.8 208 75.6Z" fill="#AFABAB"/></g></g></g><text fill="#FFFFFF" font-family="Arial,Arial_MSFontService,sans-serif" font-weight="700" font-size="15" transform="translate(216.96 85)">RUNNING</text><path d="M528 19 528 698.68" stroke="#4472C4" stroke-width="4" stroke-miterlimit="8" stroke-dasharray="4 4" fill="none" fill-rule="evenodd"/><path d="M902 19 902 698.68" stroke="#4472C4" stroke-width="4" stroke-miterlimit="8" stroke-dasharray="4 4" fill="none" fill-rule="evenodd"/></g></svg>