<svg width="1064" height="688" xmlns="http://www.w3.org/2000/svg" xmlns:xlink="http://www.w3.org/1999/xlink" overflow="hidden"><defs><clipPath id="clip0"><path d="M173 14 1237 14 1237 702 173 702Z" fill-rule="evenodd" clip-rule="evenodd"/></clipPath><clipPath id="clip1"><path d="M203 125 244 125 244 166 203 166Z" fill-rule="evenodd" clip-rule="evenodd"/></clipPath><clipPath id="clip2"><path d="M203 125 244 125 244 166 203 166Z" fill-rule="evenodd" clip-rule="evenodd"/></clipPath><clipPath id="clip3"><path d="M203 125 244 125 244 166 203 166Z" fill-rule="evenodd" clip-rule="evenodd"/></clipPath><clipPath id="clip4"><path d="M887 14 983 14 983 110 887 110Z" fill-rule="evenodd" clip-rule="evenodd"/></clipPath><clipPath id="clip5"><path d="M887 14 983 14 983 110 887 110Z" fill-rule="evenodd" clip-rule="evenodd"/></clipPath><clipPath id="clip6"><path d="M887 14 983 14 983 110 887 110Z" fill-rule="evenodd" clip-rule="evenodd"/></clipPath><clipPath id="clip7"><path d="M174 32 232 32 232 89 174 89Z" fill-rule="evenodd" clip-rule="evenodd"/></clipPath><clipPath id="clip8"><path d="M174 32 232 32 232 89 174 89Z" fill-rule="evenodd" clip-rule="evenodd"/></clipPath><clipPath id="clip9"><path d="M174 32 232 32 232 89 174 89Z" fill-rule="evenodd" clip-rule="evenodd"/></clipPath></defs><g clip-path="url(#clip0)" transform="translate(-173 -14)"><path d="M191.5 31.0004C191.5 24.6489 196.649 19.5001 203 19.5001L489 19.5001C495.351 19.5001 500.5 24.6489 500.5 31.0004L500.5 76.9997C500.5 83.3512 495.351 88.5001 489 88.5001L203 88.5001C196.649 88.5001 191.5 83.3512 191.5 76.9997Z" stroke="#000000" stroke-miterlimit="8" fill-rule="evenodd"/><text fill="#FFFFFF" font-family="Calibri,Calibri_MSFontService,sans-serif" font-weight="400" font-size="37" transform="translate(302.023 66)">Client</text><path d="M561.5 31.0003C561.5 24.6489 566.649 19.5001 573 19.5001L860 19.5001C866.351 19.5001 871.5 24.6489 871.5 31.0003L871.5 76.9998C871.5 83.3512 866.351 88.5001 860 88.5001L573 88.5001C566.649 88.5001 561.5 83.3512 561.5 76.9998Z" stroke="#2F528F" stroke-miterlimit="8" fill="#4472C4" fill-rule="evenodd"/><text fill="#FFFFFF" font-family="Calibri,Calibri_MSFontService,sans-serif" font-weight="400" font-size="37" transform="translate(663.49 66)">Shared</text><path d="M926.5 27.0003C926.5 20.6489 931.649 15.5001 938 15.5001L1225 15.5001C1231.35 15.5001 1236.5 20.6489 1236.5 27.0003L1236.5 72.9998C1236.5 79.3512 1231.35 84.5001 1225 84.5001L938 84.5001C931.649 84.5001 926.5 79.3512 926.5 72.9998Z" stroke="#2F528F" stroke-miterlimit="8" fill="#4472C4" fill-rule="evenodd"/><text fill="#FFFFFF" font-family="Calibri,Calibri_MSFontService,sans-serif" font-weight="400" font-size="37" transform="translate(965.72 63)">Server (engine)<tspan fill="#000000" font-family="Consolas,Consolas_MSFontService,sans-serif" font-size="19" x="-766.04" y="59">HolodeckEnvironment</tspan><tspan fill="#000000" font-family="Consolas,Consolas_MSFontService,sans-serif" font-size="19" x="-569.706" y="59">.__</tspan><tspan fill="#000000" font-family="Consolas,Consolas_MSFontService,sans-serif" font-size="19" x="-538.706" y="59">init</tspan><tspan fill="#000000" font-family="Consolas,Consolas_MSFontService,sans-serif" font-size="19" x="-497.373" y="59">__</tspan></text><g clip-path="url(#clip1)"><g clip-path="url(#clip2)"><g clip-path="url(#clip3)"><path d="M241.865 144.603 235.885 138.624C235.373 138.282 234.69 138.368 234.262 138.795 233.835 139.222 233.75 139.905 234.092 140.418L237.893 144.219 233.323 144.219C232.127 144.219 230.846 144.261 229.479 144.261 222.048 144.39 210.773 144.56 208.894 140.29 208.595 139.649 207.869 139.35 207.185 139.649 206.545 139.948 206.246 140.674 206.545 141.357 208.723 146.226 216.923 146.909 224.867 146.909 226.447 146.909 228.027 146.867 229.522 146.867 230.889 146.824 232.17 146.824 233.323 146.824L237.935 146.824 234.134 150.625C233.75 151.137 233.793 151.864 234.22 152.333 234.647 152.803 235.416 152.846 235.928 152.419L241.907 146.44C242.035 146.311 242.121 146.183 242.164 146.012 242.164 145.97 242.206 145.927 242.206 145.884 242.206 145.842 242.206 145.842 242.249 145.799 242.249 145.756 242.249 145.714 242.249 145.671 242.249 145.628 242.249 145.585 242.249 145.543 242.249 145.5 242.249 145.5 242.249 145.457 242.206 145.116 242.078 144.817 241.865 144.603Z"/></g></g></g><text font-family="Consolas,Consolas_MSFontService,sans-serif" font-weight="400" font-size="19" transform="translate(253.76 155)">__<tspan x="20.6667" y="0">linux_start_process</tspan></text><rect x="567" y="227" width="304" height="66" stroke="#2F528F" stroke-width="4" stroke-miterlimit="8" fill="none"/><text font-family="Calibri,Calibri_MSFontService,sans-serif" font-weight="400" font-size="16" transform="translate(576.64 251)">Semaphore:<tspan font-family="Consolas,Consolas_MSFontService,sans-serif" font-size="24" x="4.07996" y="27">/HOLODECK_LOADING_SEM</tspan></text><rect x="259.5" y="177.5" width="235" height="67" stroke="#000000" stroke-linejoin="round" stroke-miterlimit="10" stroke-dasharray="4 3" fill="none"/><text font-family="Calibri,Calibri_MSFontService,sans-serif" font-weight="400" font-size="24" transform="translate(268.16 203)">Create Loading <tspan x="0" y="29">Semaphore</tspan></text><rect x="257.5" y="326.5" width="236" height="39" stroke="#000000" stroke-linejoin="round" stroke-miterlimit="10" stroke-dasharray="4 3" fill="none"/><text font-family="Calibri,Calibri_MSFontService,sans-serif" font-weight="400" font-size="24" transform="translate(267.04 353)">Start Engine Process</text><path d="M2.70623-1.29473 70.3127 140.015 64.9002 142.605-2.70623 1.29473ZM74.4304 134.72 74.0801 154.841 58.193 142.488Z" fill="#4472C4" transform="matrix(1 0 0 -1 493 414.841)"/><rect x="926.5" y="324.5" width="236" height="97" stroke="#000000" stroke-linejoin="round" stroke-miterlimit="10" stroke-dasharray="4 3" fill="none"/><text font-family="Calibri,Calibri_MSFontService,sans-serif" font-weight="400" font-size="24" transform="translate(935.68 351)">Initialize, begin to <tspan x="0" y="29">load level, instantiate </tspan><tspan x="0" y="58">objects, </tspan>etc<tspan x="111.747" y="58">…</tspan></text><g clip-path="url(#clip4)"><g clip-path="url(#clip5)"><g clip-path="url(#clip6)"><path d="M946.3 51.3C942.1 51.3 938.8 47.9 938.8 43.8 938.8 39.7 942.2 36.3 946.3 36.3 950.5 36.3 953.8 39.7 953.8 43.8 953.8 47.9 950.4 51.3 946.3 51.3ZM963.2 39.1C962.8 37.7 962.3 36.4 961.6 35.2L963.2 30.5 959.6 26.9 954.9 28.5C953.7 27.8 952.4 27.3 951 26.9L948.8 22.5 943.8 22.5 941.6 26.9C940.2 27.3 938.9 27.8 937.7 28.5L933 26.9 929.4 30.5 931 35.2C930.3 36.4 929.8 37.7 929.4 39.1L925 41.3 925 46.3 929.4 48.5C929.8 49.9 930.3 51.2 931 52.4L929.4 57.1 932.9 60.6 937.6 59C938.8 59.7 940.1 60.2 941.5 60.6L943.7 65 948.7 65 950.9 60.6C952.3 60.2 953.6 59.7 954.8 59L959.5 60.6 963.1 57.1 961.5 52.4C962.2 51.2 962.8 49.8 963.2 48.5L967.6 46.3 967.6 41.3 963.2 39.1Z" fill="#AFABAB"/><path d="M923.7 87.7C919.5 87.7 916.2 84.3 916.2 80.2 916.2 76 919.6 72.7 923.7 72.7 927.9 72.7 931.2 76.1 931.2 80.2 931.2 84.3 927.9 87.7 923.7 87.7L923.7 87.7ZM939 71.6 940.6 66.9 937 63.3 932.3 64.9C931.1 64.2 929.7 63.7 928.4 63.3L926.2 58.9 921.2 58.9 919 63.3C917.6 63.7 916.3 64.2 915.1 64.9L910.4 63.3 906.9 66.8 908.4 71.5C907.7 72.7 907.2 74.1 906.8 75.4L902.4 77.6 902.4 82.6 906.8 84.8C907.2 86.2 907.7 87.5 908.4 88.7L906.9 93.4 910.4 96.9 915.1 95.4C916.3 96.1 917.6 96.6 919 97L921.2 101.4 926.2 101.4 928.4 97C929.8 96.6 931.1 96.1 932.3 95.4L937 97 940.5 93.4 939 88.8C939.7 87.6 940.2 86.3 940.6 84.9L945 82.7 945 77.7 940.6 75.5C940.2 74.1 939.7 72.8 939 71.6Z" fill="#AFABAB"/></g></g></g><text fill="#FFFFFF" font-family="Arial,Arial_MSFontService,sans-serif" font-weight="700" font-size="15" transform="translate(947.84 81)">RUNNING</text><rect x="257.5" y="381.5" width="236" height="68" stroke="#000000" stroke-linejoin="round" stroke-miterlimit="10" stroke-dasharray="4 3" fill="none"/><text font-family="Calibri,Calibri_MSFontService,sans-serif" font-weight="400" font-size="24" transform="translate(267.04 407)">Wait to acquire <tspan x="0" y="29">loading semaphore</tspan></text><g clip-path="url(#clip7)"><g clip-path="url(#clip8)"><g clip-path="url(#clip9)"><path d="M11.875 30.875 11.875 26.125 45.125 26.125 45.125 30.875 11.875 30.875ZM28.5 5.9375C16.0313 5.9375 5.9375 16.0313 5.9375 28.5 5.9375 40.9688 16.0313 51.0625 28.5 51.0625 40.9688 51.0625 51.0625 40.9688 51.0625 28.5 51.0625 16.0313 40.9688 5.9375 28.5 5.9375Z" fill="#C00000" transform="matrix(1.01754 0 -0 1 174 32)"/></g></g></g><text fill="#FFFFFF" font-family="Arial,Arial_MSFontService,sans-serif" font-weight="700" font-size="15" transform="translate(225.967 81)">BLOCKED </text><path d="M528 19 528 698.68" stroke="#4472C4" stroke-width="4" stroke-miterlimit="8" stroke-dasharray="4 4" fill="none" fill-rule="evenodd"/><path d="M902 19 902 698.68" stroke="#4472C4" stroke-width="4" stroke-miterlimit="8" stroke-dasharray="4 4" fill="none" fill-rule="evenodd"/></g></svg>