<svg width="1089" height="623" xmlns="http://www.w3.org/2000/svg" xmlns:xlink="http://www.w3.org/1999/xlink" overflow="hidden"><defs><clipPath id="clip0"><path d="M150 75 1239 75 1239 698 150 698Z" fill-rule="evenodd" clip-rule="evenodd"/></clipPath><clipPath id="clip1"><path d="M882 76 978 76 978 172 882 172Z" fill-rule="evenodd" clip-rule="evenodd"/></clipPath><clipPath id="clip2"><path d="M882 76 978 76 978 172 882 172Z" fill-rule="evenodd" clip-rule="evenodd"/></clipPath><clipPath id="clip3"><path d="M882 76 978 76 978 172 882 172Z" fill-rule="evenodd" clip-rule="evenodd"/></clipPath><clipPath id="clip4"><path d="M151 98 209 98 209 155 151 155Z" fill-rule="evenodd" clip-rule="evenodd"/></clipPath><clipPath id="clip5"><path d="M151 98 209 98 209 155 151 155Z" fill-rule="evenodd" clip-rule="evenodd"/></clipPath><clipPath id="clip6"><path d="M151 98 209 98 209 155 151 155Z" fill-rule="evenodd" clip-rule="evenodd"/></clipPath></defs><g clip-path="url(#clip0)" transform="translate(-150 -75)"><path d="M193.5 93.0004C193.5 86.6489 198.649 81.5001 205 81.5001L491 81.5001C497.351 81.5001 502.5 86.6489 502.5 93.0004L502.5 139C502.5 145.351 497.351 150.5 491 150.5L205 150.5C198.649 150.5 193.5 145.351 193.5 139Z" stroke="#000000" stroke-miterlimit="8" fill-rule="evenodd"/><text fill="#FFFFFF" font-family="Calibri,Calibri_MSFontService,sans-serif" font-weight="400" font-size="37" transform="translate(303.896 128)">Client</text><path d="M563.5 93.0003C563.5 86.6489 568.649 81.5001 575 81.5001L862 81.5001C868.351 81.5001 873.5 86.6489 873.5 93.0003L873.5 139C873.5 145.351 868.351 150.5 862 150.5L575 150.5C568.649 150.5 563.5 145.351 563.5 139Z" stroke="#2F528F" stroke-miterlimit="8" fill="#4472C4" fill-rule="evenodd"/><text fill="#FFFFFF" font-family="Calibri,Calibri_MSFontService,sans-serif" font-weight="400" font-size="37" transform="translate(665.363 128)">Shared</text><path d="M928.5 89.0003C928.5 82.6489 933.649 77.5001 940 77.5001L1227 77.5001C1233.35 77.5001 1238.5 82.6489 1238.5 89.0003L1238.5 135C1238.5 141.351 1233.35 146.5 1227 146.5L940 146.5C933.649 146.5 928.5 141.351 928.5 135Z" stroke="#2F528F" stroke-miterlimit="8" fill="#4472C4" fill-rule="evenodd"/><text fill="#FFFFFF" font-family="Calibri,Calibri_MSFontService,sans-serif" font-weight="400" font-size="37" transform="translate(967.593 124)">Server (engine)</text><rect x="566" y="160" width="304" height="67" stroke="#2F528F" stroke-width="4" stroke-miterlimit="8" fill="none"/><text font-family="Calibri,Calibri_MSFontService,sans-serif" font-weight="400" font-size="16" transform="translate(575.633 188)">Semaphore:<tspan font-family="Consolas,Consolas_MSFontService,sans-serif" font-size="19" x="8" y="22">/HOLODECK_SEMAPHORE_SERVER</tspan></text><rect x="566" y="238" width="304" height="66" stroke="#2F528F" stroke-width="4" stroke-miterlimit="8" fill="none"/><text font-family="Calibri,Calibri_MSFontService,sans-serif" font-weight="400" font-size="16" transform="translate(575.633 265)">Semaphore:<tspan font-family="Consolas,Consolas_MSFontService,sans-serif" font-size="19" x="8" y="22">/HOLODECK_SEMAPHORE_CLIENT</tspan></text><rect x="563" y="321" width="307" height="374" stroke="#2F528F" stroke-width="2" stroke-miterlimit="8" stroke-dasharray="8 6" fill="none"/><text font-family="Calibri,Calibri_MSFontService,sans-serif" font-weight="400" font-size="15" transform="translate(570.193 340)">MainAgent</text><rect x="576" y="352" width="277" height="66" stroke="#2F528F" stroke-width="4" stroke-miterlimit="8" fill="none"/><path d="M585.6 381.05 598.767 381.05 598.767 409.05 585.6 409.05Z" fill="#FFFFFF" fill-rule="evenodd"/><path d="M598.767 381.05 611.933 381.05 611.933 409.05 598.767 409.05Z" fill="#FFFFFF" fill-rule="evenodd"/><path d="M611.933 381.05 625.1 381.05 625.1 409.05 611.933 409.05Z" fill="#FFFFFF" fill-rule="evenodd"/><path d="M625.1 381.05 638.267 381.05 638.267 409.05 625.1 409.05Z" fill="#FFFFFF" fill-rule="evenodd"/><path d="M638.267 381.05 651.433 381.05 651.433 409.05 638.267 409.05Z" fill="#FFFFFF" fill-rule="evenodd"/><path d="M651.433 381.05 664.6 381.05 664.6 409.05 651.433 409.05Z" fill="#FFFFFF" fill-rule="evenodd"/><path d="M664.6 381.05 677.767 381.05 677.767 409.05 664.6 409.05Z" fill="#FFFFFF" fill-rule="evenodd"/><path d="M677.767 381.05 690.933 381.05 690.933 409.05 677.767 409.05Z" fill="#FFFFFF" fill-rule="evenodd"/><path d="M690.933 381.05 704.1 381.05 704.1 409.05 690.933 409.05Z" fill="#FFFFFF" fill-rule="evenodd"/><path d="M704.1 381.05 717.267 381.05 717.267 409.05 704.1 409.05Z" fill="#FFFFFF" fill-rule="evenodd"/><path d="M717.267 381.05 769.933 381.05 769.933 409.05 717.267 409.05Z" fill="#FFFFFF" fill-rule="evenodd"/><path d="M769.933 381.05 783.1 381.05 783.1 409.05 769.933 409.05Z" fill="#FFFFFF" fill-rule="evenodd"/><text font-family="Calibri,Calibri_MSFontService,sans-serif" font-weight="400" font-size="16" transform="translate(585.6 376)">shmem<tspan x="48.3334" y="0">: </tspan><tspan font-family="Consolas,Consolas_MSFontService,sans-serif" x="56.3334" y="0">MainAgent</tspan><tspan fill="#000080" font-family="Consolas,Consolas_MSFontService,sans-serif" font-weight="700" font-size="24" x="0" y="27">[</tspan><tspan fill="#FF0000" font-family="Consolas,Consolas_MSFontService,sans-serif" font-size="24" x="13.1667" y="27">0</tspan><tspan fill="#000080" font-family="Consolas,Consolas_MSFontService,sans-serif" font-weight="700" font-size="24" x="26.3334" y="27">,</tspan><tspan font-family="Consolas,Consolas_MSFontService,sans-serif" font-size="24" x="39.5" y="27"> </tspan><tspan fill="#FF0000" font-family="Consolas,Consolas_MSFontService,sans-serif" font-size="24" x="52.6667" y="27">0</tspan><tspan fill="#000080" font-family="Consolas,Consolas_MSFontService,sans-serif" font-weight="700" font-size="24" x="65.8334" y="27">,</tspan><tspan font-family="Consolas,Consolas_MSFontService,sans-serif" font-size="24" x="79" y="27"> </tspan><tspan fill="#FF0000" font-family="Consolas,Consolas_MSFontService,sans-serif" font-size="24" x="92.1667" y="27">2</tspan><tspan fill="#000080" font-family="Consolas,Consolas_MSFontService,sans-serif" font-weight="700" font-size="24" x="105.333" y="27">,</tspan><tspan font-family="Consolas,Consolas_MSFontService,sans-serif" font-size="24" x="118.5" y="27"> </tspan><tspan fill="#FF0000" font-family="Consolas,Consolas_MSFontService,sans-serif" font-size="24" x="131.667" y="27">1000</tspan><tspan fill="#000080" font-family="Consolas,Consolas_MSFontService,sans-serif" font-weight="700" font-size="24" x="184.333" y="27">]</tspan></text><rect x="579" y="430" width="274" height="111" stroke="#2F528F" stroke-width="2" stroke-miterlimit="8" stroke-dasharray="8 6" fill="none"/><text font-family="Calibri,Calibri_MSFontService,sans-serif" font-weight="400" font-size="15" transform="translate(585.714 449)">LocationSensor</text><rect x="585" y="463" width="253" height="66" stroke="#2F528F" stroke-width="4" stroke-miterlimit="8" fill="none"/><path d="M594.103 492.012 607.27 492.012 607.27 520.012 594.103 520.012Z" fill="#FFFFFF" fill-rule="evenodd"/><path d="M607.27 492.012 620.436 492.012 620.436 520.012 607.27 520.012Z" fill="#FFFFFF" fill-rule="evenodd"/><path d="M620.436 492.012 633.603 492.012 633.603 520.012 620.436 520.012Z" fill="#FFFFFF" fill-rule="evenodd"/><path d="M633.603 492.012 646.77 492.012 646.77 520.012 633.603 520.012Z" fill="#FFFFFF" fill-rule="evenodd"/><path d="M646.77 492.012 659.936 492.012 659.936 520.012 646.77 520.012Z" fill="#FFFFFF" fill-rule="evenodd"/><path d="M659.936 492.012 673.103 492.012 673.103 520.012 659.936 520.012Z" fill="#FFFFFF" fill-rule="evenodd"/><path d="M673.103 492.012 686.27 492.012 686.27 520.012 673.103 520.012Z" fill="#FFFFFF" fill-rule="evenodd"/><path d="M686.27 492.012 699.436 492.012 699.436 520.012 686.27 520.012Z" fill="#FFFFFF" fill-rule="evenodd"/><path d="M699.436 492.012 712.603 492.012 712.603 520.012 699.436 520.012Z" fill="#FFFFFF" fill-rule="evenodd"/><text font-family="Calibri,Calibri_MSFontService,sans-serif" font-weight="400" font-size="16" transform="translate(594.103 487)">shmem<tspan x="48.3334" y="0">: </tspan><tspan font-family="Consolas,Consolas_MSFontService,sans-serif" font-size="13" x="56.3334" y="0">MainAgent_LocationSensor</tspan><tspan fill="#000080" font-family="Consolas,Consolas_MSFontService,sans-serif" font-weight="700" font-size="24" x="0" y="27">[</tspan><tspan fill="#FF0000" font-family="Consolas,Consolas_MSFontService,sans-serif" font-weight="700" font-size="24" x="13.1667" y="27">1</tspan><tspan fill="#000080" font-family="Consolas,Consolas_MSFontService,sans-serif" font-weight="700" font-size="24" x="26.3334" y="27">,</tspan><tspan font-family="Consolas,Consolas_MSFontService,sans-serif" font-size="24" x="39.5" y="27"> </tspan><tspan fill="#FF0000" font-family="Consolas,Consolas_MSFontService,sans-serif" font-size="24" x="52.6667" y="27">2</tspan><tspan fill="#000080" font-family="Consolas,Consolas_MSFontService,sans-serif" font-weight="700" font-size="24" x="65.8334" y="27">,</tspan><tspan font-family="Consolas,Consolas_MSFontService,sans-serif" font-size="24" x="79" y="27"> </tspan><tspan fill="#FF0000" font-family="Consolas,Consolas_MSFontService,sans-serif" font-size="24" x="92.1667" y="27">3</tspan><tspan fill="#000080" font-family="Consolas,Consolas_MSFontService,sans-serif" font-weight="700" font-size="24" x="105.333" y="27">]</tspan></text><rect x="203.5" y="163.5" width="291" height="39" stroke="#000000" stroke-linejoin="round" stroke-miterlimit="10" stroke-dasharray="4 3" fill="none"/><text font-family="Calibri,Calibri_MSFontService,sans-serif" font-weight="400" font-size="24" transform="translate(213.096 190)">Copy action into buffer</text><path d="M1.60299-1.196 67.9435 87.7197 64.7375 90.1117-1.60299 1.196ZM69.9535 83.7248 72.3205 96.9307 60.3355 90.9008Z" fill="#4472C4" transform="matrix(-1 -8.74228e-08 -8.74228e-08 1 566.32 271)"/><rect x="206.5" y="210.5" width="290" height="38" stroke="#000000" stroke-linejoin="round" stroke-miterlimit="10" stroke-dasharray="4 3" fill="none"/><text font-family="Calibri,Calibri_MSFontService,sans-serif" font-weight="400" font-size="24" transform="translate(215.656 237)">Signal Server semaphore</text><rect x="928.5" y="164.5" width="290" height="39" stroke="#000000" stroke-linejoin="round" stroke-miterlimit="10" stroke-dasharray="4 3" fill="none"/><text font-family="Calibri,Calibri_MSFontService,sans-serif" font-weight="400" font-size="24" transform="translate(937.553 191)">Server wakes up</text><g clip-path="url(#clip1)"><g clip-path="url(#clip2)"><g clip-path="url(#clip3)"><path d="M941.3 113.3C937.1 113.3 933.8 109.9 933.8 105.8 933.8 101.7 937.2 98.3 941.3 98.3 945.5 98.3 948.8 101.7 948.8 105.8 948.8 109.9 945.4 113.3 941.3 113.3ZM958.2 101.1C957.8 99.7 957.3 98.4 956.6 97.2L958.2 92.5 954.6 88.9 949.9 90.5C948.7 89.8 947.4 89.3 946 88.9L943.8 84.5 938.8 84.5 936.6 88.9C935.2 89.3 933.9 89.8 932.7 90.5L928 88.9 924.4 92.5 926 97.2C925.3 98.4 924.8 99.7 924.4 101.1L920 103.3 920 108.3 924.4 110.5C924.8 111.9 925.3 113.2 926 114.4L924.4 119.1 927.9 122.6 932.6 121C933.8 121.7 935.1 122.2 936.5 122.6L938.7 127 943.7 127 945.9 122.6C947.3 122.2 948.6 121.7 949.8 121L954.5 122.6 958.1 119.1 956.5 114.4C957.2 113.2 957.8 111.8 958.2 110.5L962.6 108.3 962.6 103.3 958.2 101.1Z" fill="#AFABAB"/><path d="M918.7 149.7C914.5 149.7 911.2 146.3 911.2 142.2 911.2 138 914.6 134.7 918.7 134.7 922.9 134.7 926.2 138.1 926.2 142.2 926.2 146.3 922.9 149.7 918.7 149.7L918.7 149.7ZM934 133.6 935.6 128.9 932 125.3 927.3 126.9C926.1 126.2 924.7 125.7 923.4 125.3L921.2 120.9 916.2 120.9 914 125.3C912.6 125.7 911.3 126.2 910.1 126.9L905.4 125.3 901.9 128.8 903.4 133.5C902.7 134.7 902.2 136.1 901.8 137.4L897.4 139.6 897.4 144.6 901.8 146.8C902.2 148.2 902.7 149.5 903.4 150.7L901.9 155.4 905.4 158.9 910.1 157.4C911.3 158.1 912.6 158.6 914 159L916.2 163.4 921.2 163.4 923.4 159C924.8 158.6 926.1 158.1 927.3 157.4L932 159 935.5 155.4 934 150.8C934.7 149.6 935.2 148.3 935.6 146.9L940 144.7 940 139.7 935.6 137.5C935.2 136.1 934.7 134.8 934 133.6Z" fill="#AFABAB"/></g></g></g><text fill="#FFFFFF" font-family="Arial,Arial_MSFontService,sans-serif" font-weight="700" font-size="15" transform="translate(942.673 142)">RUNNING</text><g clip-path="url(#clip4)"><g clip-path="url(#clip5)"><g clip-path="url(#clip6)"><path d="M11.875 30.875 11.875 26.125 45.125 26.125 45.125 30.875 11.875 30.875ZM28.5 5.9375C16.0313 5.9375 5.9375 16.0313 5.9375 28.5 5.9375 40.9688 16.0313 51.0625 28.5 51.0625 40.9688 51.0625 51.0625 40.9688 51.0625 28.5 51.0625 16.0313 40.9688 5.9375 28.5 5.9375Z" fill="#C00000" transform="matrix(1.01754 0 -0 1 151 98)"/></g></g></g><text fill="#FFFFFF" font-family="Arial,Arial_MSFontService,sans-serif" font-weight="700" font-size="15" transform="translate(202.833 147)">BLOCKED </text><rect x="206.5" y="263.5" width="290" height="68" stroke="#000000" stroke-linejoin="round" stroke-miterlimit="10" stroke-dasharray="4 3" fill="none"/><text font-family="Calibri,Calibri_MSFontService,sans-serif" font-weight="400" font-size="24" transform="translate(215.289 290)">Wait on client semaphore <tspan x="0" y="29">for server to finish</tspan></text><rect x="928.5" y="221.5" width="291" height="97" stroke="#000000" stroke-linejoin="round" stroke-miterlimit="10" stroke-dasharray="4 3" fill="none"/><text font-family="Calibri,Calibri_MSFontService,sans-serif" font-weight="400" font-size="24" transform="translate(938.099 248)">Read action buffer, apply <tspan x="0" y="29">the action to the agent (</tspan><tspan x="236.18" y="29">ie</tspan><tspan x="0" y="58">fly up a bit), tick once</tspan></text><rect x="930.5" y="336.5" width="290" height="97" stroke="#000000" stroke-linejoin="round" stroke-miterlimit="10" stroke-dasharray="4 3" fill="none"/><text font-family="Calibri,Calibri_MSFontService,sans-serif" font-weight="400" font-size="24" transform="translate(939.473 363)">Sample sensor data, copy <tspan x="0" y="29">results into sensor’s shared </tspan><tspan x="0" y="58">memory</tspan></text><path d="M927.924 471.854 870.946 281.154 874.779 280.009 931.757 470.709ZM867.686 284.215 870 271 879.184 280.78Z" fill="#4472C4"/><rect x="930.5" y="452.5" width="290" height="38" stroke="#000000" stroke-linejoin="round" stroke-miterlimit="10" stroke-dasharray="4 3" fill="none"/><text font-family="Calibri,Calibri_MSFontService,sans-serif" font-weight="400" font-size="24" transform="translate(939.473 479)">Signal Client semaphore</text><rect x="203.5" y="348.5" width="291" height="39" stroke="#000000" stroke-linejoin="round" stroke-miterlimit="10" stroke-dasharray="4 3" fill="none"/><text font-family="Calibri,Calibri_MSFontService,sans-serif" font-weight="400" font-size="24" transform="translate(213.096 375)">Wake up</text><path d="M530 81 530 695.486" stroke="#4472C4" stroke-width="4" stroke-miterlimit="8" stroke-dasharray="4 4" fill="none" fill-rule="evenodd"/><path d="M904 81 904 695.486" stroke="#4472C4" stroke-width="4" stroke-miterlimit="8" stroke-dasharray="4 4" fill="none" fill-rule="evenodd"/></g></svg>