<svg width="1098" height="623" xmlns="http://www.w3.org/2000/svg" xmlns:xlink="http://www.w3.org/1999/xlink" overflow="hidden"><defs><clipPath id="clip0"><path d="M141 75 1239 75 1239 698 141 698Z" fill-rule="evenodd" clip-rule="evenodd"/></clipPath><clipPath id="clip1"><path d="M142 81 238 81 238 177 142 177Z" fill-rule="evenodd" clip-rule="evenodd"/></clipPath><clipPath id="clip2"><path d="M142 81 238 81 238 177 142 177Z" fill-rule="evenodd" clip-rule="evenodd"/></clipPath><clipPath id="clip3"><path d="M142 81 238 81 238 177 142 177Z" fill-rule="evenodd" clip-rule="evenodd"/></clipPath><clipPath id="clip4"><path d="M912 92 970 92 970 149 912 149Z" fill-rule="evenodd" clip-rule="evenodd"/></clipPath><clipPath id="clip5"><path d="M912 92 970 92 970 149 912 149Z" fill-rule="evenodd" clip-rule="evenodd"/></clipPath><clipPath id="clip6"><path d="M912 92 970 92 970 149 912 149Z" fill-rule="evenodd" clip-rule="evenodd"/></clipPath></defs><g clip-path="url(#clip0)" transform="translate(-141 -75)"><path d="M193.5 93.0004C193.5 86.6489 198.649 81.5001 205 81.5001L491 81.5001C497.351 81.5001 502.5 86.6489 502.5 93.0004L502.5 139C502.5 145.351 497.351 150.5 491 150.5L205 150.5C198.649 150.5 193.5 145.351 193.5 139Z" stroke="#2F528F" stroke-miterlimit="8" fill="#4472C4" fill-rule="evenodd"/><text fill="#FFFFFF" font-family="Calibri,Calibri_MSFontService,sans-serif" font-weight="400" font-size="37" transform="translate(303.896 128)">Client</text><path d="M563.5 93.0003C563.5 86.6489 568.649 81.5001 575 81.5001L862 81.5001C868.351 81.5001 873.5 86.6489 873.5 93.0003L873.5 139C873.5 145.351 868.351 150.5 862 150.5L575 150.5C568.649 150.5 563.5 145.351 563.5 139Z" stroke="#2F528F" stroke-miterlimit="8" fill="#4472C4" fill-rule="evenodd"/><text fill="#FFFFFF" font-family="Calibri,Calibri_MSFontService,sans-serif" font-weight="400" font-size="37" transform="translate(665.363 128)">Shared</text><path d="M928.5 89.0003C928.5 82.6489 933.649 77.5001 940 77.5001L1227 77.5001C1233.35 77.5001 1238.5 82.6489 1238.5 89.0003L1238.5 135C1238.5 141.351 1233.35 146.5 1227 146.5L940 146.5C933.649 146.5 928.5 141.351 928.5 135Z" stroke="#000000" stroke-miterlimit="8" fill-rule="evenodd"/><text fill="#FFFFFF" font-family="Calibri,Calibri_MSFontService,sans-serif" font-weight="400" font-size="37" transform="translate(967.593 124)">Server (engine)</text><path d="M530 81 530 695.486" stroke="#4472C4" stroke-width="4" stroke-miterlimit="8" stroke-dasharray="4 4" fill="none" fill-rule="evenodd"/><path d="M904 81 904 695.486" stroke="#4472C4" stroke-width="4" stroke-miterlimit="8" stroke-dasharray="4 4" fill="none" fill-rule="evenodd"/><rect x="566" y="160" width="304" height="67" stroke="#2F528F" stroke-width="4" stroke-miterlimit="8" fill="none"/><text font-family="Calibri,Calibri_MSFontService,sans-serif" font-weight="400" font-size="16" transform="translate(575.633 188)">Semaphore:<tspan font-family="Consolas,Consolas_MSFontService,sans-serif" font-size="19" x="8" y="22">/HOLODECK_SEMAPHORE_SERVER</tspan></text><g clip-path="url(#clip1)"><g clip-path="url(#clip2)"><g clip-path="url(#clip3)"><path d="M201.3 118.3C197.1 118.3 193.8 114.9 193.8 110.8 193.8 106.7 197.2 103.3 201.3 103.3 205.5 103.3 208.8 106.7 208.8 110.8 208.8 114.9 205.4 118.3 201.3 118.3ZM218.2 106.1C217.8 104.7 217.3 103.4 216.6 102.2L218.2 97.5 214.6 93.9 209.9 95.5C208.7 94.8 207.4 94.3 206 93.9L203.8 89.5 198.8 89.5 196.6 93.9C195.2 94.3 193.9 94.8 192.7 95.5L188 93.9 184.4 97.5 186 102.2C185.3 103.4 184.8 104.7 184.4 106.1L180 108.3 180 113.3 184.4 115.5C184.8 116.9 185.3 118.2 186 119.4L184.4 124.1 187.9 127.6 192.6 126C193.8 126.7 195.1 127.2 196.5 127.6L198.7 132 203.7 132 205.9 127.6C207.3 127.2 208.6 126.7 209.8 126L214.5 127.6 218.1 124.1 216.5 119.4C217.2 118.2 217.8 116.8 218.2 115.5L222.6 113.3 222.6 108.3 218.2 106.1Z" fill="#AFABAB"/><path d="M178.7 154.7C174.5 154.7 171.2 151.3 171.2 147.2 171.2 143 174.6 139.7 178.7 139.7 182.9 139.7 186.2 143.1 186.2 147.2 186.2 151.3 182.9 154.7 178.7 154.7L178.7 154.7ZM194 138.6 195.6 133.9 192 130.3 187.3 131.9C186.1 131.2 184.7 130.7 183.4 130.3L181.2 125.9 176.2 125.9 174 130.3C172.6 130.7 171.3 131.2 170.1 131.9L165.4 130.3 161.9 133.8 163.4 138.5C162.7 139.7 162.2 141.1 161.8 142.4L157.4 144.6 157.4 149.6 161.8 151.8C162.2 153.2 162.7 154.5 163.4 155.7L161.9 160.4 165.4 163.9 170.1 162.4C171.3 163.1 172.6 163.6 174 164L176.2 168.4 181.2 168.4 183.4 164C184.8 163.6 186.1 163.1 187.3 162.4L192 164 195.5 160.4 194 155.8C194.7 154.6 195.2 153.3 195.6 151.9L200 149.7 200 144.7 195.6 142.5C195.2 141.1 194.7 139.8 194 138.6Z" fill="#AFABAB"/></g></g></g><text fill="#FFFFFF" font-family="Arial,Arial_MSFontService,sans-serif" font-weight="700" font-size="15" transform="translate(202.833 147)">RUNNING</text><g clip-path="url(#clip4)"><g clip-path="url(#clip5)"><g clip-path="url(#clip6)"><path d="M11.875 30.875 11.875 26.125 45.125 26.125 45.125 30.875 11.875 30.875ZM28.5 5.9375C16.0313 5.9375 5.9375 16.0313 5.9375 28.5 5.9375 40.9688 16.0313 51.0625 28.5 51.0625 40.9688 51.0625 51.0625 40.9688 51.0625 28.5 51.0625 16.0313 40.9688 5.9375 28.5 5.9375Z" fill="#C00000" transform="matrix(1.01754 0 -0 1 912 92)"/></g></g></g><text fill="#FFFFFF" font-family="Arial,Arial_MSFontService,sans-serif" font-weight="700" font-size="15" transform="translate(963.84 141)">BLOCKED </text><rect x="566" y="238" width="304" height="66" stroke="#2F528F" stroke-width="4" stroke-miterlimit="8" fill="none"/><text font-family="Calibri,Calibri_MSFontService,sans-serif" font-weight="400" font-size="16" transform="translate(575.633 265)">Semaphore:<tspan font-family="Consolas,Consolas_MSFontService,sans-serif" font-size="19" x="8" y="22">/HOLODECK_SEMAPHORE_CLIENT</tspan></text><rect x="563" y="321" width="307" height="374" stroke="#2F528F" stroke-width="2" stroke-miterlimit="8" stroke-dasharray="8 6" fill="none"/><text font-family="Calibri,Calibri_MSFontService,sans-serif" font-weight="400" font-size="15" transform="translate(570.193 340)">MainAgent</text><rect x="576" y="352" width="277" height="66" stroke="#2F528F" stroke-width="4" stroke-miterlimit="8" fill="none"/><path d="M585.6 381.05 598.767 381.05 598.767 409.05 585.6 409.05Z" fill="#FFFFFF" fill-rule="evenodd"/><path d="M598.767 381.05 611.933 381.05 611.933 409.05 598.767 409.05Z" fill="#FFFFFF" fill-rule="evenodd"/><path d="M611.933 381.05 625.1 381.05 625.1 409.05 611.933 409.05Z" fill="#FFFFFF" fill-rule="evenodd"/><path d="M625.1 381.05 638.267 381.05 638.267 409.05 625.1 409.05Z" fill="#FFFFFF" fill-rule="evenodd"/><path d="M638.267 381.05 651.433 381.05 651.433 409.05 638.267 409.05Z" fill="#FFFFFF" fill-rule="evenodd"/><path d="M651.433 381.05 664.6 381.05 664.6 409.05 651.433 409.05Z" fill="#FFFFFF" fill-rule="evenodd"/><path d="M664.6 381.05 677.767 381.05 677.767 409.05 664.6 409.05Z" fill="#FFFFFF" fill-rule="evenodd"/><path d="M677.767 381.05 690.933 381.05 690.933 409.05 677.767 409.05Z" fill="#FFFFFF" fill-rule="evenodd"/><path d="M690.933 381.05 704.1 381.05 704.1 409.05 690.933 409.05Z" fill="#FFFFFF" fill-rule="evenodd"/><path d="M704.1 381.05 717.267 381.05 717.267 409.05 704.1 409.05Z" fill="#FFFFFF" fill-rule="evenodd"/><path d="M717.267 381.05 769.933 381.05 769.933 409.05 717.267 409.05Z" fill="#FFFFFF" fill-rule="evenodd"/><path d="M769.933 381.05 783.1 381.05 783.1 409.05 769.933 409.05Z" fill="#FFFFFF" fill-rule="evenodd"/><text font-family="Calibri,Calibri_MSFontService,sans-serif" font-weight="400" font-size="16" transform="translate(585.6 376)">shmem<tspan x="48.3334" y="0">: </tspan><tspan font-family="Consolas,Consolas_MSFontService,sans-serif" x="56.3334" y="0">MainAgent</tspan><tspan fill="#000080" font-family="Consolas,Consolas_MSFontService,sans-serif" font-weight="700" font-size="24" x="0" y="27">[</tspan><tspan fill="#FF0000" font-family="Consolas,Consolas_MSFontService,sans-serif" font-size="24" x="13.1667" y="27">0</tspan><tspan fill="#000080" font-family="Consolas,Consolas_MSFontService,sans-serif" font-weight="700" font-size="24" x="26.3334" y="27">,</tspan><tspan font-family="Consolas,Consolas_MSFontService,sans-serif" font-size="24" x="39.5" y="27"> </tspan><tspan fill="#FF0000" font-family="Consolas,Consolas_MSFontService,sans-serif" font-size="24" x="52.6667" y="27">0</tspan><tspan fill="#000080" font-family="Consolas,Consolas_MSFontService,sans-serif" font-weight="700" font-size="24" x="65.8334" y="27">,</tspan><tspan font-family="Consolas,Consolas_MSFontService,sans-serif" font-size="24" x="79" y="27"> </tspan><tspan fill="#FF0000" font-family="Consolas,Consolas_MSFontService,sans-serif" font-size="24" x="92.1667" y="27">2</tspan><tspan fill="#000080" font-family="Consolas,Consolas_MSFontService,sans-serif" font-weight="700" font-size="24" x="105.333" y="27">,</tspan><tspan font-family="Consolas,Consolas_MSFontService,sans-serif" font-size="24" x="118.5" y="27"> </tspan><tspan fill="#FF0000" font-family="Consolas,Consolas_MSFontService,sans-serif" font-size="24" x="131.667" y="27">1000</tspan><tspan fill="#000080" font-family="Consolas,Consolas_MSFontService,sans-serif" font-weight="700" font-size="24" x="184.333" y="27">]</tspan></text><rect x="579" y="430" width="274" height="111" stroke="#2F528F" stroke-width="2" stroke-miterlimit="8" stroke-dasharray="8 6" fill="none"/><text font-family="Calibri,Calibri_MSFontService,sans-serif" font-weight="400" font-size="15" transform="translate(585.714 449)">LocationSensor</text><rect x="585" y="463" width="253" height="66" stroke="#2F528F" stroke-width="4" stroke-miterlimit="8" fill="none"/><text font-family="Calibri,Calibri_MSFontService,sans-serif" font-weight="400" font-size="16" transform="translate(594.103 487)">shmem<tspan x="48.3334" y="0">: </tspan><tspan font-family="Consolas,Consolas_MSFontService,sans-serif" font-size="13" x="56.3334" y="0">MainAgent_LocationSensor</tspan></text><rect x="203.5" y="163.5" width="291" height="39" stroke="#000000" stroke-linejoin="round" stroke-miterlimit="10" stroke-dasharray="4 3" fill="none"/><text font-family="Calibri,Calibri_MSFontService,sans-serif" font-weight="400" font-size="24" transform="translate(213.096 190)">Copy action into buffer</text><path d="M495.846 182.23 582.789 390.799 579.097 392.339 492.154 183.77ZM585.711 387.414 584.79 400.799 574.635 392.032Z" fill="#4472C4"/><rect x="928.5" y="170.5" width="290" height="38" stroke="#000000" stroke-linejoin="round" stroke-miterlimit="10" stroke-dasharray="4 3" fill="none"/><text font-family="Calibri,Calibri_MSFontService,sans-serif" font-weight="400" font-size="24" transform="translate(937.553 196)">Wait on Server semaphore</text><path d="M0.156505-1.99387 48.1075 1.76996 47.7945 5.75769-0.156505 1.99387ZM46.4266-2.37428 57.9203 4.54635 45.4876 9.58892Z" fill="#4472C4" transform="matrix(-1 -8.74228e-08 -8.74228e-08 1 927.92 189)"/></g></svg>